<svg xmlns="http://www.w3.org/2000/svg" viewBox="0 0 358.71396 343.1884">
  <g id="Capa_2" data-name="Capa 2">
    <g id="Capa_1-2" data-name="Capa 1">
      <path d="M179.51414.07324C207.14479.18,234.78507-.33686,262.39959.8784c12.29889.54126,24.58136,1.7277,36.47413,5.20544,31.8657,9.31828,49.51963,31.26437,55.87271,63.181,3.49814,17.57384,3.58353,35.44035,3.7089,53.19987.27373,38.77645.65326,77.56835-.78882,116.335-.63123,16.96864-1.85238,33.92466-7.0026,50.256-8.10151,25.69-26.013,41.19831-51.56011,48.07654-18.63618,5.01756-37.84123,4.8322-56.99,5.31235-39.44411.989-78.88938.89121-118.32518.29205-18.58473-.28235-37.23046-.0381-55.72533-3.28665-34.1656-6.00107-57.48719-28.85038-63.88547-63.27422C.41506,255.93163.29591,235.43671.26338,214.99282c-.06488-40.77576-.9373-81.56448.89981-122.32634.68372-15.17032,2.03654-30.28207,8.4504-44.32663C21.44679,22.42846,42.26221,8.36024,69.83626,3.69827,93.9166-.373,118.28226.5185,142.56.10376,154.87464-.10661,167.19583.067,179.51414.07324Z" style="fill: #e94e25"/>
      <path d="M197.95475,219.62621l.00019.22914q30.44222,0,60.88438-.01177c4.82172-.00661,9.6752.16235,14.45838-.31137,10.96764-1.08618,16.315-7.16927,16.33542-18.0643q.03123-16.71879.03554-33.43756c.02265-12.53869-6.71189-19.58316-19.34426-19.62538-38.59408-.129-77.18877-.07217-115.78305-.16192a16.233,16.233,0,0,0-11.3668,4.22061c-5.21308,4.64794-10.35419,9.394-15.79363,13.76531a16.80456,16.80456,0,0,0-6.51136,13.88707c-.02969,11.64483.16428,23.29374-.10343,34.93247-.08951,3.89158,1.28489,4.66357,4.82512,4.64476C149.71186,219.56513,173.83347,219.62621,197.95475,219.62621Z" style="fill: #e94e25"/>
      <path d="M143.34148,68.64232v-.04177c-16.312,0-32.62417.041-48.93586-.0291A57.80535,57.80535,0,0,0,82.515,69.82508c-9.6357,1.97758-14.04587,7.238-14.11133,16.99095q-.21117,31.45743-.15606,62.91644c.00436,4.94556,1.15853,9.62756,5.10263,13.06374,6.82958,5.95008,23.86272,5.87893,30.7705-.11653,8.92221-7.74383,17.87867-15.45171,26.64907-23.36493a13.62681,13.62681,0,0,1,9.86568-3.7721c22.96924.12964,45.93994.00091,68.90909.13842,3.46205.02073,4.48168-.95919,4.43364-4.46454-.1938-14.14537-.02725-28.29522-.07739-42.44312-.04582-12.92842-7.16858-20.06508-20.12549-20.11522C176.9643,68.59312,160.15278,68.64232,143.34148,68.64232Z" style="fill: #e94e25"/>
      <path d="M164.49986,233.30479v-.06713c-12.97994,0-25.96212.13242-38.93836-.08687-3.53986-.05981-4.91932.54929-4.78608,4.48656.29243,8.6419.03,17.30294-.022,25.95606-.05982,9.96367,6.0022,17.30672,15.876,17.51122,19.46049.403,38.94629.46474,58.40114-.07312,11.44652-.31647,16.77488-6.91874,16.75454-18.521-.01225-6.98919-.00268-13.9784-.01493-20.96758-.01119-6.39127-1.81108-8.21122-8.33056-8.22817C190.45974,233.281,177.47979,233.30479,164.49986,233.30479Z" style="fill: #e94e25"/>
      <path d="M293.06521,92.83524c.0017-16.33539-13.89733-30.13269-30.34668-30.12458-16.57053.00817-30.63547,14.17095-30.45895,30.67087.17174,16.05606,14.26531,30.12159,30.05094,29.99114C278.83456,123.23613,293.06353,109.1077,293.06521,92.83524Z" style="fill: #e94e25"/>
      <path d="M197.95475,219.62621c-24.12128,0-48.24289-.06108-72.3635.06706-3.54023.01881-4.91463-.75318-4.82512-4.64476.26771-11.63873.07374-23.28764.10343-34.93247a16.80456,16.80456,0,0,1,6.51136-13.88707c5.43944-4.37127,10.58055-9.11737,15.79363-13.76531a16.233,16.233,0,0,1,11.3668-4.22061c38.59428.08975,77.189.03293,115.78305.16192,12.63237.04222,19.36691,7.08669,19.34426,19.62538q-.03027,16.71879-.03554,33.43756c-.02037,10.895-5.36778,16.97812-16.33542,18.0643-4.78318.47372-9.63666.30476-14.45838.31137q-30.44212.04174-60.88438.01177Z" style="fill: #fffffe"/>
      <path d="M143.34148,68.64232c16.8113,0,33.62282-.0492,50.43388.01587,12.95691.05014,20.07967,7.1868,20.12549,20.11522.05014,14.1479-.11641,28.29775.07739,42.44312.048,3.50535-.97159,4.48527-4.43364,4.46454-22.96915-.13751-45.93985-.00878-68.90909-.13842a13.62681,13.62681,0,0,0-9.86568,3.7721c-8.7704,7.91322-17.72686,15.6211-26.64907,23.36493-6.90778,5.99546-23.94092,6.06661-30.7705.11653-3.9441-3.43618-5.09827-8.11818-5.10263-13.06374q-.02777-31.45822.15606-62.91644c.06546-9.753,4.47563-15.01337,14.11133-16.99095a57.80535,57.80535,0,0,1,11.8906-1.25363c16.31169.07008,32.62387.0291,48.93586.0291Z" style="fill: #fffefe"/>
      <path d="M164.49986,233.30479c12.97993,0,25.95988-.02375,38.93972.01,6.51948.017,8.31937,1.8369,8.33056,8.22817.01225,6.98918.00268,13.97839.01493,20.96758.02034,11.60221-5.308,18.20448-16.75454,18.521-19.45485.53786-38.94065.47616-58.40114.07312-9.87375-.2045-15.93577-7.54755-15.876-17.51122.052-8.65312.31441-17.31416.022-25.95606-.13324-3.93727,1.24622-4.54637,4.78608-4.48656,12.97624.21929,25.95842.08687,38.93836.08687Z" style="fill: #fffefe"/>
      <path d="M293.06521,92.83524c-.00168,16.27246-14.23065,30.40089-30.75469,30.53743-15.78563.13045-29.8792-13.93508-30.05094-29.99114-.17652-16.49992,13.88842-30.6627,30.45895-30.67087C279.16788,62.70255,293.06691,76.49985,293.06521,92.83524Z" style="fill: #fffdfd"/>
    </g>
  </g>
</svg>
